
<svg width="32" height="32" viewBox="0 0 32 32" xmlns="http://www.w3.org/2000/svg">
  <!-- Фон -->
  <rect width="32" height="32" fill="#6B46C1" rx="6"/>
  
  <!-- Лицо шута -->
  <ellipse cx="16" cy="18" rx="8" ry="10" fill="#FEF3C7"/>
  
  <!-- Глаза -->
  <ellipse cx="13" cy="15" rx="1.5" ry="2" fill="#1F2937"/>
  <ellipse cx="19" cy="15" rx="1.5" ry="2" fill="#1F2937"/>
  
  <!-- Нос -->
  <path d="M16 17 L15 19 L17 19 Z" fill="#1F2937"/>
  
  <!-- Улыбка -->
  <path d="M12 20 Q16 23 20 20" stroke="#1F2937" stroke-width="1" fill="none"/>
  
  <!-- Шляпа шута -->
  <path d="M8 8 L16 4 L24 8 L22 12 L10 12 Z" fill="#7C2D12"/>
  <path d="M10 8 L14 6 L18 8 L16 10 L12 10 Z" fill="#166534"/>
  <path d="M18 8 L22 6 L26 8 L24 10 L20 10 Z" fill="#166534"/>
  
  <!-- Колокольчики -->
  <circle cx="12" cy="10" r="1.5" fill="#FCD34D"/>
  <circle cx="16" cy="8" r="1.5" fill="#FCD34D"/>
  <circle cx="20" cy="10" r="1.5" fill="#FCD34D"/>
  <circle cx="16" cy="12" r="1" fill="#FCD34D"/>
  
  <!-- Воротник -->
  <path d="M8 22 Q16 26 24 22" stroke="#FCD34D" stroke-width="2" fill="none"/>
</svg>